# xmcd
#
# Track frame offsets:
# 182
# 28862
# 54177
# 72555
# 94420
# 121707
# 148390
# 169507
# 179385
# 203200
#
# Disc length: 2891 seconds
#
#
# Revision: 0
# Processed by: cddbd v1.5.1PL2 Copyright (c) Steve Scherf et al.
# Submitted via: FreeRIP 2.931 
#
DISCID=910b490a
DTITLE=charles brown - live
DYEAR=1900
DGENRE=Blues
TTITLE0=quicksand
TTITLE1=saving my love for you
TTITLE2=seven long days
TTITLE3=just the way you are
TTITLE4=black night
TTITLE5=so long
TTITLE6=a cottage for sale
TTITLE7=browns boogie
TTITLE8=quicksand (alternative)
TTITLE9=times are getting toughe than tough
EXTD=
EXTT0=
EXTT1=
EXTT2=
EXTT3=
EXTT4=
EXTT5=
EXTT6=
EXTT7=
EXTT8=
EXTT9=
PLAYORDER=
